<svg width="68" height="68" viewBox="0 0 68 68" fill="none" xmlns="http://www.w3.org/2000/svg">
<path d="M8.5 42.5006V47.6C8.5 50.7736 8.5 52.3593 9.11763 53.5715C9.66091 54.6378 10.5272 55.5064 11.5934 56.0496C12.8044 56.6667 14.3905 56.6667 17.5579 56.6667H59.5005M8.5 42.5006V14.1667M8.5 42.5006L19.418 33.4023L19.427 33.3951C21.402 31.7492 22.3915 30.9247 23.4644 30.5898C24.7318 30.1941 26.097 30.2567 27.3234 30.7655C28.3631 31.1968 29.2747 32.1084 31.098 33.9317L31.1163 33.95C32.9679 35.8015 33.8961 36.7298 34.9525 37.1601C36.2025 37.6694 37.5942 37.7132 38.8753 37.2883C39.9615 36.928 40.9536 36.0614 42.9372 34.3257L59.4999 19.8333" stroke="white" stroke-width="2" stroke-linecap="round" stroke-linejoin="round"/>
</svg>
