<svg width="40" height="40" viewBox="0 0 40 40" fill="none" xmlns="http://www.w3.org/2000/svg">
<path d="M33.3332 9.3335C33.3332 8.40008 33.3325 7.93302 33.1509 7.5765C32.9911 7.2629 32.7371 7.00812 32.4235 6.84833C32.067 6.66667 31.5993 6.66667 30.6659 6.66667H9.33252C8.3991 6.66667 7.93285 6.66667 7.57633 6.84833C7.26273 7.00812 7.00795 7.2629 6.84816 7.5765C6.6665 7.93302 6.6665 8.40008 6.6665 9.3335V10.5623C6.6665 10.9699 6.6665 11.1739 6.71255 11.3657C6.75338 11.5358 6.82089 11.6982 6.91227 11.8473C7.01531 12.0155 7.15968 12.1599 7.44775 12.4479L15.8857 20.8858C16.1739 21.1741 16.3172 21.3174 16.4203 21.4856C16.5117 21.6347 16.5801 21.7977 16.6209 21.9678C16.6665 22.1576 16.6665 22.3592 16.6665 22.7586V30.685C16.6665 32.1137 16.6665 32.8285 16.9674 33.2587C17.2302 33.6344 17.6355 33.885 18.089 33.952C18.6084 34.0287 19.2477 33.7096 20.5256 33.0706L21.8589 32.404C22.394 32.1364 22.6609 32.0022 22.8564 31.8026C23.0292 31.6261 23.1615 31.4141 23.242 31.1806C23.3331 30.9165 23.3332 30.6166 23.3332 30.0183V22.771C23.3332 22.3633 23.3332 22.1596 23.3792 21.9678C23.42 21.7977 23.4876 21.6347 23.5789 21.4856C23.6813 21.3185 23.8243 21.1756 24.1087 20.8911L24.1144 20.8858L32.5523 12.4479C32.8406 12.1597 32.9839 12.0155 33.087 11.8473C33.1783 11.6982 33.2468 11.5358 33.2876 11.3657C33.3332 11.1759 33.3332 10.9741 33.3332 10.5747V9.3335Z" stroke="#140F2D" stroke-width="2" stroke-linecap="round" stroke-linejoin="round"/>
</svg>
