<svg width="68" height="68" viewBox="0 0 68 68" fill="none" xmlns="http://www.w3.org/2000/svg">
<path d="M59.5 56.6665C59.5 51.7319 54.7694 47.5339 48.1667 45.978M42.5 56.6667C42.5 50.4074 34.8888 45.3333 25.5 45.3333C16.1112 45.3333 8.5 50.4074 8.5 56.6667M42.5 36.8333C48.7592 36.8333 53.8333 31.7592 53.8333 25.5C53.8333 19.2408 48.7592 14.1667 42.5 14.1667M25.5 36.8333C19.2408 36.8333 14.1667 31.7592 14.1667 25.5C14.1667 19.2408 19.2408 14.1667 25.5 14.1667C31.7592 14.1667 36.8333 19.2408 36.8333 25.5C36.8333 31.7592 31.7592 36.8333 25.5 36.8333Z" stroke="white" stroke-width="2" stroke-linecap="round" stroke-linejoin="round"/>
</svg>
