<svg width="68" height="68" viewBox="0 0 68 68" fill="none" xmlns="http://www.w3.org/2000/svg">
<path d="M22.6668 11.3333H20.4007C17.2271 11.3333 15.6391 11.3333 14.4269 11.951C13.3607 12.4942 12.4944 13.3605 11.9511 14.4268C11.3335 15.6389 11.3335 17.2269 11.3335 20.4006V22.6667M22.6668 11.3333H45.3335M22.6668 11.3333V5.66667M45.3335 11.3333H47.6007C50.7743 11.3333 52.3589 11.3333 53.5711 11.951C54.6374 12.4942 55.5065 13.3605 56.0498 14.4268C56.6668 15.6377 56.6668 17.2238 56.6668 20.3912V22.6667M45.3335 11.3333V5.66667M11.3335 22.6667V47.6006C11.3335 50.7742 11.3335 52.3602 11.9511 53.5723C12.4944 54.6386 13.3607 55.5064 14.4269 56.0496C15.6379 56.6667 17.224 56.6667 20.3914 56.6667H47.6089C50.7763 56.6667 52.3601 56.6667 53.5711 56.0496C54.6374 55.5064 55.5065 54.6386 56.0498 53.5723C56.6668 52.3614 56.6668 50.7776 56.6668 47.6101V22.6667M11.3335 22.6667H56.6668M45.3335 45.3333H45.3392L45.339 45.339L45.3335 45.3389V45.3333ZM34.0002 45.3333H34.0058L34.0057 45.339L34.0002 45.3389V45.3333ZM22.6668 45.3333H22.6725L22.6724 45.339L22.6668 45.3389V45.3333ZM45.339 34V34.0057L45.3335 34.0055V34H45.339ZM34.0002 34H34.0058L34.0057 34.0057L34.0002 34.0055V34ZM22.6668 34H22.6725L22.6724 34.0057L22.6668 34.0055V34Z" stroke="white" stroke-width="2" stroke-linecap="round" stroke-linejoin="round"/>
</svg>
